<?xml version="1.0" encoding="UTF-8" standalone="no"?>
<svg
   xmlns:dc="http://purl.org/dc/elements/1.1/"
   xmlns:cc="http://creativecommons.org/ns#"
   xmlns:rdf="http://www.w3.org/1999/02/22-rdf-syntax-ns#"
   xmlns:svg="http://www.w3.org/2000/svg"
   xmlns="http://www.w3.org/2000/svg"
   viewBox="0 0 29.269531 48.711262"
   height="48.711262"
   width="29.269531"
   xml:space="preserve"
   id="svg2"
   version="1.1"><metadata
     id="metadata8"><rdf:RDF><cc:Work
         rdf:about=""><dc:format>image/svg+xml</dc:format><dc:type
           rdf:resource="http://purl.org/dc/dcmitype/StillImage" /></cc:Work></rdf:RDF></metadata><defs
     id="defs6" /><g
     transform="matrix(1.3333333,0,0,-1.3333333,0,48.711263)"
     id="g10"><g
       id="g12"><g
         transform="translate(2,-2.132568)"
         id="g14"><path
           id="path16"
           style="fill:#ffffff;fill-opacity:1;fill-rule:nonzero;stroke:none"
           d="m 13.056191,36.655331 -0.11013,-1.996964 0.05502,-0.003 h 0.05511 v 2 z m -8.160119,-8.130665 -1.997496,0.100048 -0.0025,-0.04999 v -0.05005 h 2 z m 0,-4.878399 v -2 h 2 v 2 z m 0,-6.504534 h 2 v 2 h -2 z m 6.528096,0 v 2 h -2 v -2 z m 4.275902,0 0.0318,1.999746 -0.0159,2.54e-4 h -0.0159 z m 0.799693,0.668522 -1.940266,0.485325 -0.0031,-0.01287 1.943395,-0.472456 z m 1.175057,4.697718 1.940266,-0.485325 0.0031,0.01265 -1.943342,0.472676 z m -0.783371,1.138294 0.01241,2 h -0.01241 z m -5.467281,0 h -2 v -2 h 2 z m 0,4.878399 -1.991812,0.180796 -0.00819,-0.09021 v -0.09058 h 2 z m 1.632023,1.626133 -0.0111,-2 h 0.0111 z m 6.896072,5.601127 c 0,0.708062 -0.252203,1.422951 -0.754824,1.979405 l -2.968361,-2.681202 c -0.196558,0.217609 -0.276815,0.472931 -0.276815,0.701797 z m -0.754824,1.979405 c -0.508703,0.563187 -1.244869,0.924 -2.061188,0.924 v -4 c -0.38348,0 -0.704532,0.170456 -0.907173,0.394798 z m -2.061188,0.924 h -4.08006 v -4 h 4.08006 z m -3.969929,-0.003 C 10.514506,38.798542 7.958185,37.772144 6.049505,35.870354 l 2.823309,-2.833538 c 1.149328,1.145179 2.616029,1.701915 4.073247,1.621551 l 0.220261,3.993931 z M 6.049505,35.870354 C 4.147795,33.975506 3.035839,31.365253 2.898576,28.624714 l 3.994992,-0.200096 c 0.090517,1.807228 0.822948,3.460075 1.979246,4.612198 z M 2.896072,28.524666 v -4.878399 h 4 v 4.878399 z m 2,-2.878399 h -4.08006 v -4 h 4.08006 z m -4.08006,0 c -0.816322,0 -1.552486,-0.360819 -2.061187,-0.924002 L 1.723184,22.041063 C 1.520547,21.816723 1.199495,21.646267 0.816012,21.646267 Z M -1.245175,24.722265 C -1.747794,24.165815 -2,23.450928 -2,22.742859 H 2 C 2,22.513988 1.919739,22.258671 1.723184,22.041063 Z M -2,22.742859 v -4.697718 h 4 v 4.697718 z m 0,-4.697718 c 0,-0.708065 0.252204,-1.422954 0.754825,-1.979406 l 2.968359,2.681202 C 1.919741,18.529329 2,18.27401 2,18.045141 Z m 0.754825,-1.979406 c 0.508701,-0.563183 1.244865,-0.924002 2.061187,-0.924002 v 4 c 0.383483,0 0.704535,-0.170456 0.907172,-0.394796 z m 2.061187,-0.924002 h 4.08006 v 4 h -4.08006 z m 2.08006,2 V 5.036076 h 4 v 12.105657 z m 0,-12.105657 c 0,-0.708062 0.2522,-1.422951 0.754824,-1.979405 l 2.96836,2.6812 C 6.815815,5.52026 6.896072,5.264938 6.896072,5.036076 Z M 3.650896,3.056671 C 4.159598,2.493484 4.895764,2.132668 5.712084,2.132668 v 4 c 0.38348,0 0.704532,-0.170456 0.907172,-0.394797 z M 5.712084,2.132668 h 4.896071 v 4 H 5.712084 Z m 4.896071,0 c 0.816321,0 1.552486,0.360816 2.061188,0.924003 l -2.968359,2.6812 c 0.202639,0.224341 0.523691,0.394797 0.907171,0.394797 z m 2.061188,0.924003 c 0.502623,0.55645 0.754825,1.27134 0.754825,1.979405 h -4 c 0,0.228866 0.080258,0.484186 0.276816,0.701795 z m 0.754825,1.979405 v 12.105657 h -4 V 5.036076 Z m -2,10.105657 h 4.275902 v 4 h -4.275902 z m 4.244099,2.54e-4 c 0.681915,-0.01084 1.321153,0.232296 1.818013,0.647657 l -2.565517,3.068897 c 0.207198,0.173213 0.492126,0.288012 0.811111,0.282938 l -0.06361,-3.999492 z m 1.818013,0.647657 c 0.492506,0.411722 0.8149,0.964138 0.956879,1.548155 l -3.886791,0.944912 c 0.04764,0.195984 0.161551,0.406258 0.364395,0.57583 z m 0.953707,1.535296 1.175057,4.697719 -3.880448,0.970631 -1.175056,-4.69772 z m 1.178175,4.710357 c 0.09816,0.40358 0.111006,0.823525 0.03864,1.231259 l -3.93845,-0.699005 c -0.02422,0.136448 -0.0201,0.276487 0.01313,0.413097 l 3.886684,-0.945351 z m 0.03864,1.231259 c -0.07238,0.407818 -0.230339,0.804622 -0.473299,1.157659 L 15.88841,22.156538 c -0.09161,0.13312 -0.145827,0.274485 -0.170058,0.411013 z m -0.473299,1.157659 c -0.243347,0.3536 -0.569645,0.659237 -0.965639,0.877901 l -1.933552,-3.501625 c -0.172519,0.09526 -0.303903,0.222367 -0.395902,0.356047 z m -0.965639,0.877901 c -0.397289,0.219376 -0.847544,0.341217 -1.314005,0.344113 l -0.02482,-3.999924 c -0.216734,0.0013 -0.420916,0.05821 -0.594729,0.154186 l 1.933552,3.501625 z m -1.326414,0.344151 h -5.467281 v -4 h 5.467281 z m -3.467281,-2 v 4.878399 h -4 v -4.878399 z m -0.0082,4.697603 c -8e-6,-8.9e-5 -1.14e-4,-0.0012 -7.24e-4,-0.0035 -6.04e-4,-0.0023 -0.0019,-0.0063 -0.0045,-0.01199 -0.0049,-0.0108 -0.01694,-0.03224 -0.04288,-0.0581 l -2.823309,2.833538 C 9.891455,30.452991 9.51288,29.592585 9.432356,28.705462 l 3.983623,-0.361592 z m -0.04808,-0.07364 c -0.05508,-0.05487 -0.167206,-0.120266 -0.322806,-0.119404 l 0.02219,3.999939 c -0.967586,0.0054 -1.864068,-0.390747 -2.522695,-1.046997 l 2.823309,-2.833538 z m -0.31171,-0.119434 h 4.08006 v 4 h -4.08006 z m 4.08006,0 c 0.816321,0 1.552485,0.360817 2.061188,0.924001 l -2.968361,2.681202 c 0.202641,0.224343 0.523693,0.394797 0.907173,0.394797 z m 2.061188,0.924001 c 0.502621,0.556452 0.754824,1.271342 0.754824,1.979407 h -4 c 0,0.228866 0.08026,0.484188 0.276815,0.701795 L 19.197439,29.0748 Z m 0.754824,1.979407 v 4.697719 h -4 v -4.697719 z" /></g><g
         transform="translate(2,-2.132568)"
         id="g18"><path
           id="path20"
           style="fill:#d02237;fill-opacity:1;fill-rule:nonzero;stroke:none"
           d="m 17.952263,35.751926 c 0,0.239598 -0.08597,0.469384 -0.239004,0.638806 -0.153033,0.169418 -0.360588,0.264599 -0.577008,0.264599 h -4.08006 C 11.001675,36.768635 8.990164,35.97707 7.46116,34.453583 5.932156,32.930099 5.009962,30.79855 4.896072,28.524666 v -4.878399 h -4.08006 c -0.21642,0 -0.423976,-0.09518 -0.577007,-0.264603 C 0.085973,23.212242 0,22.982458 0,22.742859 v -4.697718 c 0,-0.239599 0.085973,-0.469383 0.239005,-0.638805 0.153031,-0.169422 0.360587,-0.264603 0.577007,-0.264603 h 4.08006 V 5.036076 c 0,-0.2396 0.085972,-0.469384 0.239004,-0.638806 C 5.288107,4.227848 5.495664,4.132668 5.712084,4.132668 h 4.896071 c 0.21642,0 0.423976,0.09518 0.577008,0.264602 0.153033,0.169422 0.239005,0.399206 0.239005,0.638806 v 12.105657 h 4.275902 c 0.181466,-0.0029 0.358621,0.06129 0.503452,0.18236 0.14483,0.121075 0.249075,0.292147 0.296241,0.486162 l 1.175057,4.697718 c 0.03247,0.133484 0.03683,0.273437 0.01276,0.40908 -0.02407,0.135647 -0.07595,0.263363 -0.151621,0.373324 -0.07567,0.10996 -0.17313,0.199226 -0.284868,0.260927 -0.111738,0.0617 -0.234775,0.09419 -0.359638,0.09496 h -5.467281 v 4.878399 c 0.04059,0.447229 0.230302,0.861648 0.532078,1.162336 0.301776,0.300688 0.693952,0.466051 1.099945,0.463797 h 4.08006 c 0.21642,0 0.423975,0.09518 0.577008,0.264602 0.153032,0.169423 0.239004,0.399207 0.239004,0.638806 v 4.697719 z" /></g></g><g
       id="g22"><g
         transform="translate(2,-2.132568)"
         id="g24"><path
           id="path26"
           style="fill:#ffffff;fill-opacity:1;fill-rule:nonzero;stroke:none"
           d="m 13.056191,36.655331 -0.11013,-1.996964 0.05502,-0.003 h 0.05511 v 2 z m -8.160119,-8.130665 -1.997496,0.100048 -0.0025,-0.04999 v -0.05005 h 2 z m 0,-4.878399 v -2 h 2 v 2 z m 0,-6.504534 h 2 v 2 h -2 z m 6.528096,0 v 2 h -2 v -2 z m 4.275902,0 0.0318,1.999746 -0.0159,2.54e-4 h -0.0159 z m 0.799693,0.668522 -1.940266,0.485325 -0.0031,-0.01287 1.943395,-0.472456 z m 1.175057,4.697718 1.940266,-0.485325 0.0031,0.01265 -1.943342,0.472676 z m -0.783371,1.138294 0.01241,2 h -0.01241 z m -5.467281,0 h -2 v -2 h 2 z m 0,4.878399 -1.991812,0.180796 -0.00819,-0.09021 v -0.09058 h 2 z m 1.632023,1.626133 -0.0111,-2 h 0.0111 z m 6.896072,5.601127 c 0,0.708062 -0.252203,1.422951 -0.754824,1.979405 l -2.968361,-2.681202 c -0.196558,0.217609 -0.276815,0.472931 -0.276815,0.701797 z m -0.754824,1.979405 c -0.508703,0.563187 -1.244869,0.924 -2.061188,0.924 v -4 c -0.38348,0 -0.704532,0.170456 -0.907173,0.394798 z m -2.061188,0.924 h -4.08006 v -4 h 4.08006 z m -3.969929,-0.003 C 10.514506,38.798542 7.958185,37.772144 6.049505,35.870354 l 2.823309,-2.833538 c 1.149328,1.145179 2.616029,1.701915 4.073247,1.621551 l 0.220261,3.993931 z M 6.049505,35.870354 C 4.147795,33.975506 3.035839,31.365253 2.898576,28.624714 l 3.994992,-0.200096 c 0.090517,1.807228 0.822948,3.460075 1.979246,4.612198 z M 2.896072,28.524666 v -4.878399 h 4 v 4.878399 z m 2,-2.878399 h -4.08006 v -4 h 4.08006 z m -4.08006,0 c -0.816322,0 -1.552486,-0.360819 -2.061187,-0.924002 L 1.723184,22.041063 C 1.520547,21.816723 1.199495,21.646267 0.816012,21.646267 Z M -1.245175,24.722265 C -1.747794,24.165815 -2,23.450928 -2,22.742859 H 2 C 2,22.513988 1.919739,22.258671 1.723184,22.041063 Z M -2,22.742859 v -4.697718 h 4 v 4.697718 z m 0,-4.697718 c 0,-0.708065 0.252204,-1.422954 0.754825,-1.979406 l 2.968359,2.681202 C 1.919741,18.529329 2,18.27401 2,18.045141 Z m 0.754825,-1.979406 c 0.508701,-0.563183 1.244865,-0.924002 2.061187,-0.924002 v 4 c 0.383483,0 0.704535,-0.170456 0.907172,-0.394796 z m 2.061187,-0.924002 h 4.08006 v 4 h -4.08006 z m 2.08006,2 V 5.036076 h 4 v 12.105657 z m 0,-12.105657 c 0,-0.708062 0.2522,-1.422951 0.754824,-1.979405 l 2.96836,2.6812 C 6.815815,5.52026 6.896072,5.264938 6.896072,5.036076 Z M 3.650896,3.056671 C 4.159598,2.493484 4.895764,2.132668 5.712084,2.132668 v 4 c 0.38348,0 0.704532,-0.170456 0.907172,-0.394797 z M 5.712084,2.132668 h 4.896071 v 4 H 5.712084 Z m 4.896071,0 c 0.816321,0 1.552486,0.360816 2.061188,0.924003 l -2.968359,2.6812 c 0.202639,0.224341 0.523691,0.394797 0.907171,0.394797 z m 2.061188,0.924003 c 0.502623,0.55645 0.754825,1.27134 0.754825,1.979405 h -4 c 0,0.228866 0.080258,0.484186 0.276816,0.701795 z m 0.754825,1.979405 v 12.105657 h -4 V 5.036076 Z m -2,10.105657 h 4.275902 v 4 h -4.275902 z m 4.244099,2.54e-4 c 0.681915,-0.01084 1.321153,0.232296 1.818013,0.647657 l -2.565517,3.068897 c 0.207198,0.173213 0.492126,0.288012 0.811111,0.282938 l -0.06361,-3.999492 z m 1.818013,0.647657 c 0.492506,0.411722 0.8149,0.964138 0.956879,1.548155 l -3.886791,0.944912 c 0.04764,0.195984 0.161551,0.406258 0.364395,0.57583 z m 0.953707,1.535296 1.175057,4.697719 -3.880448,0.970631 -1.175056,-4.69772 z m 1.178175,4.710357 c 0.09816,0.40358 0.111006,0.823525 0.03864,1.231259 l -3.93845,-0.699005 c -0.02422,0.136448 -0.0201,0.276487 0.01313,0.413097 l 3.886684,-0.945351 z m 0.03864,1.231259 c -0.07238,0.407818 -0.230339,0.804622 -0.473299,1.157659 L 15.88841,22.156538 c -0.09161,0.13312 -0.145827,0.274485 -0.170058,0.411013 z m -0.473299,1.157659 c -0.243347,0.3536 -0.569645,0.659237 -0.965639,0.877901 l -1.933552,-3.501625 c -0.172519,0.09526 -0.303903,0.222367 -0.395902,0.356047 z m -0.965639,0.877901 c -0.397289,0.219376 -0.847544,0.341217 -1.314005,0.344113 l -0.02482,-3.999924 c -0.216734,0.0013 -0.420916,0.05821 -0.594729,0.154186 l 1.933552,3.501625 z m -1.326414,0.344151 h -5.467281 v -4 h 5.467281 z m -3.467281,-2 v 4.878399 h -4 v -4.878399 z m -0.0082,4.697603 c -8e-6,-8.9e-5 -1.14e-4,-0.0012 -7.24e-4,-0.0035 -6.04e-4,-0.0023 -0.0019,-0.0063 -0.0045,-0.01199 -0.0049,-0.0108 -0.01694,-0.03224 -0.04288,-0.0581 l -2.823309,2.833538 C 9.891455,30.452991 9.51288,29.592585 9.432356,28.705462 l 3.983623,-0.361592 z m -0.04808,-0.07364 c -0.05508,-0.05487 -0.167206,-0.120266 -0.322806,-0.119404 l 0.02219,3.999939 c -0.967586,0.0054 -1.864068,-0.390747 -2.522695,-1.046997 l 2.823309,-2.833538 z m -0.31171,-0.119434 h 4.08006 v 4 h -4.08006 z m 4.08006,0 c 0.816321,0 1.552485,0.360817 2.061188,0.924001 l -2.968361,2.681202 c 0.202641,0.224343 0.523693,0.394797 0.907173,0.394797 z m 2.061188,0.924001 c 0.502621,0.556452 0.754824,1.271342 0.754824,1.979407 h -4 c 0,0.228866 0.08026,0.484188 0.276815,0.701795 L 19.197439,29.0748 Z m 0.754824,1.979407 v 4.697719 h -4 v -4.697719 z" /></g><g
         transform="translate(2,-2.132568)"
         id="g28"><path
           id="path30"
           style="fill:#d02237;fill-opacity:1;fill-rule:nonzero;stroke:none"
           d="m 17.952263,35.751926 c 0,0.239598 -0.08597,0.469384 -0.239004,0.638806 -0.153033,0.169418 -0.360588,0.264599 -0.577008,0.264599 h -4.08006 C 11.001675,36.768635 8.990164,35.97707 7.46116,34.453583 5.932156,32.930099 5.009962,30.79855 4.896072,28.524666 v -4.878399 h -4.08006 c -0.21642,0 -0.423976,-0.09518 -0.577007,-0.264603 C 0.085973,23.212242 0,22.982458 0,22.742859 v -4.697718 c 0,-0.239599 0.085973,-0.469383 0.239005,-0.638805 0.153031,-0.169422 0.360587,-0.264603 0.577007,-0.264603 h 4.08006 V 5.036076 c 0,-0.2396 0.085972,-0.469384 0.239004,-0.638806 C 5.288107,4.227848 5.495664,4.132668 5.712084,4.132668 h 4.896071 c 0.21642,0 0.423976,0.09518 0.577008,0.264602 0.153033,0.169422 0.239005,0.399206 0.239005,0.638806 v 12.105657 h 4.275902 c 0.181466,-0.0029 0.358621,0.06129 0.503452,0.18236 0.14483,0.121075 0.249075,0.292147 0.296241,0.486162 l 1.175057,4.697718 c 0.03247,0.133484 0.03683,0.273437 0.01276,0.40908 -0.02407,0.135647 -0.07595,0.263363 -0.151621,0.373324 -0.07567,0.10996 -0.17313,0.199226 -0.284868,0.260927 -0.111738,0.0617 -0.234775,0.09419 -0.359638,0.09496 h -5.467281 v 4.878399 c 0.04059,0.447229 0.230302,0.861648 0.532078,1.162336 0.301776,0.300688 0.693952,0.466051 1.099945,0.463797 h 4.08006 c 0.21642,0 0.423975,0.09518 0.577008,0.264602 0.153032,0.169423 0.239004,0.399207 0.239004,0.638806 v 4.697719 z" /></g></g></g></svg>