<svg width="27" height="29" viewBox="0 0 27 29" fill="none" xmlns="http://www.w3.org/2000/svg">
<path d="M18.6743 1H7.51811C3.91828 1 1 4.19664 1 8.13986V20.3601C1 24.3034 3.91828 27.5 7.51811 27.5H18.6742C22.2741 27.5 25.1923 24.3034 25.1923 20.3601V8.13986C25.1924 4.19664 22.2741 1 18.6743 1Z" fill="#E93636" stroke="white" stroke-width="2" stroke-miterlimit="10"/>
<path d="M13.0964 20.6462C16.3215 20.6462 18.9359 17.7823 18.9359 14.2496C18.9359 10.7169 16.3215 7.85303 13.0964 7.85303C9.87129 7.85303 7.25684 10.7169 7.25684 14.2496C7.25684 17.7823 9.87129 20.6462 13.0964 20.6462Z" fill="#E93636" stroke="white" stroke-width="2" stroke-miterlimit="10"/>
<path d="M20.1869 7.85371C20.878 7.85371 21.4382 7.24003 21.4382 6.48301C21.4382 5.72599 20.878 5.1123 20.1869 5.1123C19.4958 5.1123 18.9355 5.72599 18.9355 6.48301C18.9355 7.24003 19.4958 7.85371 20.1869 7.85371Z" fill="#E93636"/>
</svg>
