<svg width="32" height="32" viewBox="0 0 32 32" fill="none" xmlns="http://www.w3.org/2000/svg">
<path d="M2.99071 15.2884C4.13406 18.0687 5.93395 20.4609 8.20434 22.2101C6.74374 23.7083 4.88903 24.6218 2.93121 24.8177L2.88999 24.8218L2.84924 24.8293C2.48216 24.8971 2.16108 25.0878 1.92341 25.3521C1.68695 25.6151 1.54131 25.9403 1.49084 26.2773C1.44038 26.6143 1.48481 26.9631 1.6237 27.2787C1.76282 27.5948 1.99589 27.8741 2.30773 28.0613L2.3219 28.0698L2.33634 28.0778C4.712 29.3993 7.33444 30.1017 10.0019 30.125C12.347 30.2102 14.6811 29.7721 16.8657 28.8397C19.0544 27.9055 21.0451 26.4957 22.7231 24.6997C24.401 22.904 25.7331 20.758 26.6457 18.3912C27.5205 16.1224 27.994 13.6916 28.0434 11.2305C29.0332 9.80025 29.7699 8.17963 30.2176 6.45385L30.2177 6.45387L30.2209 6.44079C30.2955 6.13672 30.2897 5.81658 30.2035 5.51507C30.1172 5.2134 29.9505 4.93137 29.7093 4.71049C29.4668 4.48851 29.1588 4.33814 28.8189 4.29484C28.481 4.2518 28.144 4.31884 27.8512 4.47849C27.5239 4.65284 27.1657 4.70511 26.8212 4.63767C26.4781 4.57047 26.1444 4.38319 25.874 4.07964C25.2704 3.34786 24.536 2.75042 23.7101 2.32813C22.8781 1.90279 21.9729 1.66527 21.0488 1.63393C20.1246 1.60259 19.2068 1.77833 18.3511 2.14741C17.496 2.51626 16.7236 3.06908 16.0767 3.76696C15.1986 4.71352 14.5638 5.88732 14.2239 7.17003C13.9859 8.0686 13.8971 9.00344 13.9585 9.93015C10.0163 9.81986 7.17309 7.5846 4.75015 4.3894L4.74354 4.38068L4.73674 4.37212C4.53617 4.11929 4.26135 3.92189 3.93689 3.82238C3.61087 3.72239 3.26357 3.73058 2.94318 3.84469C2.62445 3.95822 2.3592 4.16647 2.16963 4.42605C1.98874 4.67374 1.88025 4.96239 1.84585 5.25811C1.30158 8.64983 1.69925 12.1478 2.99071 15.2884Z" fill="#D33F3F" stroke="white" stroke-width="2"/>
</svg>
